<svg xmlns="http://www.w3.org/2000/svg" viewBox="0 0 600 600" width="100%" height="100%">
  <defs>
    <radialGradient id="backdropGlow" cx="50%" cy="40%" r="65%">
      <stop offset="0%" stop-color="#2E7D32" stop-opacity="0.32" />
      <stop offset="45%" stop-color="#141414" stop-opacity="0.95" />
      <stop offset="100%" stop-color="#050505" stop-opacity="1" />
    </radialGradient>
    <linearGradient id="bodyGrad" x1="0%" y1="0%" x2="100%" y2="0%">
      <stop offset="0%" stop-color="#080808" />
      <stop offset="18%" stop-color="#242424" />
      <stop offset="45%" stop-color="#3c3c3c" />
      <stop offset="55%" stop-color="#181818" />
      <stop offset="82%" stop-color="#2a2a2a" />
      <stop offset="100%" stop-color="#0a0a0a" />
    </linearGradient>
    <linearGradient id="metallicCan" x1="0%" y1="0%" x2="100%" y2="0%">
      <stop offset="0%" stop-color="#1a1a1a" />
      <stop offset="25%" stop-color="#666666" />
      <stop offset="50%" stop-color="#888888" />
      <stop offset="75%" stop-color="#333333" />
      <stop offset="100%" stop-color="#111111" />
    </linearGradient>
    <linearGradient id="labelDarkGrad" x1="0%" y1="0%" x2="100%" y2="100%">
      <stop offset="0%" stop-color="#1c1c1c" />
      <stop offset="60%" stop-color="#101010" />
      <stop offset="100%" stop-color="#070707" />
    </linearGradient>
    <linearGradient id="glassSheen" x1="0%" y1="0%" x2="100%" y2="0%">
      <stop offset="0%" stop-color="#fff" stop-opacity="0" />
      <stop offset="30%" stop-color="#fff" stop-opacity="0.28" />
      <stop offset="45%" stop-color="#fff" stop-opacity="0.04" />
      <stop offset="85%" stop-color="#fff" stop-opacity="0.12" />
      <stop offset="100%" stop-color="#fff" stop-opacity="0" />
    </linearGradient>
    <filter id="softShadow" x="-25%" y="-20%" width="150%" height="150%">
      <feDropShadow dx="0" dy="28" stdDeviation="22" flood-color="#000" flood-opacity="0.85" />
    </filter>
    <radialGradient id="floorReflection" cx="50%" cy="50%" r="50%">
      <stop offset="0%" stop-color="#2E7D32" stop-opacity="0.3" />
      <stop offset="40%" stop-color="#000000" stop-opacity="0.8" />
      <stop offset="100%" stop-color="#000000" stop-opacity="0" />
    </radialGradient>
  </defs>

  <rect width="600" height="600" fill="url(#backdropGlow)" />

  <g opacity="0.04" stroke="#ffffff" stroke-width="1.5" fill="none">
    <circle cx="300" cy="300" r="180" />
    <circle cx="300" cy="300" r="260" />
    <line x1="0" y1="300" x2="600" y2="300" stroke-dasharray="8 8"/>
    <line x1="300" y1="0" x2="300" y2="600" stroke-dasharray="8 8"/>
  </g>

  <ellipse cx="300" cy="525" rx="160" ry="32" fill="url(#floorReflection)" />
  <ellipse cx="300" cy="518" rx="100" ry="12" fill="#2E7D32" opacity="0.45" />

  <g filter="url(#softShadow)">
    
      <!-- Ergonomic Trigger Spray Head -->
      <g id="sprayHead">
        <path d="M 265 140 Q 300 130 335 140 L 350 175 L 325 210 L 275 210 L 250 175 Z" fill="#1b1b1b" stroke="#383838" stroke-width="2"/>
        <path d="M 255 155 L 220 148 L 220 178 L 255 170 Z" fill="#0d0d0d" stroke="#2a2a2a" stroke-width="2"/>
        <rect x="208" y="152" width="14" height="22" rx="3" fill="#2E7D32" stroke="#fff" stroke-width="1"/>
        <circle cx="215" cy="163" r="2.5" fill="#111" />
        <path d="M 270 190 Q 240 230 258 265 L 272 260 Q 256 230 282 195 Z" fill="#262626" stroke="#404040" stroke-width="1.5"/>
        <rect x="270" y="205" width="60" height="25" rx="4" fill="#202020" stroke="#333" stroke-width="1.5"/>
        <line x1="270" y1="214" x2="330" y2="214" stroke="#444" stroke-width="1.5"/>
        <line x1="270" y1="222" x2="330" y2="222" stroke="#444" stroke-width="1.5"/>
      </g>

      <!-- Bottle Body -->
      <path d="M 255 225 Q 300 215 345 225 L 365 260 L 365 490 Q 300 520 235 490 L 235 260 Z" fill="url(#bodyGrad)" stroke="#383838" stroke-width="2"/>
      <path d="M 255 225 Q 300 215 345 225 L 365 260 L 365 490 Q 300 520 235 490 L 235 260 Z" fill="url(#glassSheen)"/>
      
      <!-- Label Wrap -->
      <rect x="242" y="270" width="116" height="215" rx="8" fill="url(#labelDarkGrad)" stroke="rgba(255,255,255,0.1)" stroke-width="1.5"/>
      <rect x="242" y="270" width="116" height="8" fill="#2E7D32"/>
      <rect x="242" y="477" width="116" height="8" fill="#2E7D32"/>
    

    <g text-anchor="middle">
      <polygon points="300,282 314,291 314,307 300,315 286,307 286,291" fill="#2E7D32" stroke="#ffffff" stroke-width="1"/>
      <text x="300" y="303" font-family="&apos;Rajdhani&apos;, &apos;Impact&apos;, sans-serif" font-size="12" font-weight="900" fill="#ffffff" letter-spacing="1">4M</text>
      
      <text x="300" y="330" font-family="&apos;Rajdhani&apos;, &apos;Arial Black&apos;, sans-serif" font-size="10.5" font-weight="800" fill="#ffffff" letter-spacing="2.8">AUTOTECH</text>
      <text x="300" y="340" font-family="&apos;Inter&apos;, sans-serif" font-size="6.5" font-weight="700" fill="#2E7D32" letter-spacing="1.5">PROFESSIONAL CAR CARE</text>

      <line x1="258" y1="348" x2="342" y2="348" stroke="#2E7D32" stroke-width="1.8" />

      <text x="300" y="370" font-family="&apos;Rajdhani&apos;, &apos;Arial Black&apos;, sans-serif" font-size="13" font-weight="900" fill="#ffffff" letter-spacing="1">DASHBOARD</text>
      <text x="300" y="386" font-family="&apos;Rajdhani&apos;, &apos;Arial Black&apos;, sans-serif" font-size="12" font-weight="900" fill="#ffffff" letter-spacing="1">POLISH</text>
      
      <text x="300" y="408" font-family="&apos;Inter&apos;, sans-serif" font-size="6.5" font-weight="600" fill="#cfcfcf" letter-spacing="0.5">INTERIOR TRIM SATIN SHINE &amp; UV BLOCK</text>
      <text x="300" y="420" font-family="&apos;Inter&apos;, sans-serif" font-size="6" font-weight="600" fill="#2E7D32" letter-spacing="0.6">UV-50 BLOCKER RESIN</text>

      <rect x="256" y="432" width="88" height="18" rx="4" fill="#1c1c1c" stroke="#2E7D32" stroke-width="1.2" />
      <text x="300" y="445" font-family="&apos;Rajdhani&apos;, sans-serif" font-size="9" font-weight="800" fill="#ffffff" letter-spacing="1.5">300 ML • PRO GRADE</text>

      <text x="300" y="466" font-family="&apos;Inter&apos;, sans-serif" font-size="5.8" font-weight="600" fill="#888888" letter-spacing="0.8">ANTI-STATIC • MATTE SATIN</text>
    </g>
  </g>

  <g fill="#ffffff" opacity="0.75">
    <circle cx="230" cy="190" r="2" />
    <polygon points="230,186 232,190 236,190 233,192 234,196 230,193 226,196 227,192 224,190 228,190" fill="#2E7D32" />
    <circle cx="420" cy="240" r="2.5" />
    <polygon points="420,235 422,240 427,240 423,243 425,248 420,244 415,248 417,243 413,240 418,240" fill="#ffffff" />
  </g>
</svg>